<svg xmlns="http://www.w3.org/2000/svg" xmlns:xlink="http://www.w3.org/1999/xlink" version="1.1" width="1066" height="350" viewBox="0 0 1066 350" xml:space="preserve">
    <title>Equalify Beta Logo</title>
	<rect x="0" y="0" width="100%" height="100%" fill="transparent"></rect>
	<g transform="matrix(0 0 0 0 0 0)" id="d1d2fcd2-e3b1-47a8-93f8-10b718051c7b"  ></g>
	<g transform="matrix(1 0 0 1 533 175)" id="b3e6d21e-7a41-44d5-bb15-abfa405481b8"  >
	<rect style="stroke: none; stroke-width: 1; stroke-dasharray: none; stroke-linecap: butt; stroke-dashoffset: 0; stroke-linejoin: miter; stroke-miterlimit: 4; fill: rgb(255,255,255); fill-rule: nonzero; opacity: 1; visibility: hidden;" vector-effect="non-scaling-stroke"  x="-533" y="-175" rx="0" ry="0" width="1066" height="350" />
	</g>
	<g transform="matrix(0.98 0 0 0.98 542.14 158.1)"  >
	<g style="" vector-effect="non-scaling-stroke"   >
			<g transform="matrix(1 0 0 1 0 0)"  >
	<path style="stroke: none; stroke-width: 1; stroke-dasharray: none; stroke-linecap: butt; stroke-dashoffset: 0; stroke-linejoin: miter; stroke-miterlimit: 4; fill: rgb(24,97,33); fill-rule: nonzero; opacity: 1;" vector-effect="non-scaling-stroke"  transform=" translate(-533.6, -167.92)" d="M 944.936 304.007 C 938.676 307.452 933.0210000000001 311.443 926.768 313.92900000000003 C 911.1650000000001 320.13100000000003 895.051 322.82500000000005 878.1610000000001 319.663 C 868.038 317.767 858.7610000000001 314.396 850.479 308.245 C 840.365 300.735 836.279 285.966 841.945 273.555 C 842.399 272.559 842.715 271.5 843.2700000000001 269.995 C 826.6620000000001 269.995 810.5800000000002 269.788 794.5070000000001 270.08 C 786.0960000000001 270.233 778.267 269.23699999999997 771.69 263.265 C 765.4920000000001 268.33299999999997 758.6700000000001 270.31 750.796 270.10499999999996 C 735.9720000000001 269.722 721.11 270.472 706.307 269.804 C 698.297 269.44199999999995 691.102 272.59 683.49 273.08099999999996 C 674.689 273.64799999999997 665.758 273.14 656.953 272.34099999999995 C 652.279 271.91599999999994 647.483 270.45799999999997 643.222 268.448 C 636.867 265.45 630.937 261.55199999999996 625.415 258.376 C 623.899 259.53099999999995 621.837 260.921 619.985 262.54999999999995 C 614.7090000000001 267.18699999999995 608.962 270.21599999999995 601.601 270.066 C 588.939 269.808 576.268 270.068 563.603 269.941 C 560.6579999999999 269.911 557.7299999999999 269.003 554.7769999999999 268.861 C 552.5699999999999 268.755 550.2189999999999 268.858 548.1329999999999 269.51099999999997 C 539.713 272.145 531.309 274.32599999999996 522.3249999999999 274.058 C 505.37499999999994 273.551 490.6119999999999 268.069 478.49499999999995 255.994 C 477.679 255.181 476.81399999999996 254.419 476.042 253.698 C 473.24699999999996 257.09000000000003 470.905 260.724 467.80199999999996 263.514 C 463.15999999999997 267.688 457.70199999999994 270.195 451.08899999999994 270.064 C 438.92699999999996 269.82300000000004 426.75499999999994 270.119 414.5919999999999 269.92400000000004 C 410.6669999999999 269.86 406.7679999999999 268.80600000000004 402.83399999999995 268.49800000000005 C 400.7629999999999 268.33600000000007 398.5369999999999 268.45500000000004 396.56199999999995 269.04900000000004 C 386.69599999999997 272.014 376.83199999999994 274.629 366.35299999999995 274.02900000000005 C 351.92599999999993 273.20400000000006 338.79699999999997 269.172 327.823 259.36300000000006 C 327.34299999999996 258.93300000000005 326.75 258.63000000000005 325.67499999999995 257.9100000000001 C 323.73199999999997 267.73800000000006 321.83899999999994 277.1930000000001 319.996 286.6590000000001 C 318.215 295.8100000000001 316.626 305.0380000000001 308.936 311.5550000000001 C 303.616 316.0630000000001 297.72299999999996 319.05900000000014 290.508 319.0190000000001 C 276.342 318.93900000000014 262.155 318.52300000000014 248.01299999999998 319.1110000000001 C 228.873 319.9060000000001 214.87499999999997 303.1280000000001 217.05899999999997 285.9250000000001 C 217.52699999999996 282.2380000000001 218.55199999999996 278.6220000000001 219.41199999999998 274.54000000000013 C 202.43399999999997 272.55700000000013 187.777 267.16200000000015 177.14899999999997 255.85900000000012 C 170.87599999999998 260.4260000000001 165.19599999999997 264.80400000000014 159.22899999999998 268.74900000000014 C 157.59199999999998 269.83100000000013 155.099 269.9420000000001 152.99699999999999 269.94600000000014 C 114.33099999999999 270.01300000000015 75.66399999999999 270.01000000000016 36.996999999999986 269.98600000000016 C 26.201999999999984 269.97900000000016 15.082999999999984 260.33800000000014 11.652999999999984 250.07600000000016 C 8.949999999999985 241.98800000000017 11.246999999999984 234.65200000000016 12.551999999999985 227.11800000000017 C 14.748999999999985 214.43400000000017 17.461999999999986 201.83800000000016 20.045999999999985 189.22400000000016 C 22.098999999999986 179.20000000000016 24.372999999999983 169.22100000000017 26.388999999999985 159.19000000000017 C 28.371999999999986 149.32500000000016 30.138999999999985 139.41700000000017 32.02899999999998 129.53200000000015 C 33.70399999999998 120.77200000000015 35.34099999999998 112.00400000000016 37.130999999999986 103.26700000000015 C 40.05099999999999 89.01600000000015 43.078999999999986 74.78700000000015 46.06199999999998 60.55000000000015 C 48.54199999999998 48.71300000000015 55.92899999999999 41.31600000000015 67.15199999999999 37.55500000000015 C 68.97899999999998 36.94300000000015 71.08599999999998 37.02700000000015 73.06199999999998 37.02500000000015 C 109.56199999999998 36.99700000000015 146.063 37.081000000000145 182.56199999999998 36.971000000000146 C 200.076 36.919000000000146 214.07399999999998 53.37600000000015 210.522 71.97900000000016 C 209.476 77.46100000000015 208.648 82.98400000000015 207.839 87.77600000000015 C 217.137 83.91800000000015 226.285 79.06300000000016 236.029 76.33300000000015 C 250.115 72.38500000000016 264.558 72.42700000000015 278.665 77.34800000000016 C 279.869 77.76800000000016 281.161 78.23800000000016 282.40200000000004 78.21000000000015 C 298.34200000000004 77.86300000000016 314.34400000000005 76.44000000000015 330.19100000000003 77.46000000000015 C 337.519 77.93000000000015 344.297 78.26100000000015 351.75800000000004 77.54000000000015 C 368.766 75.89600000000014 386.04200000000003 76.90600000000015 403.206 77.13000000000015 C 406.064 77.16700000000016 408.85900000000004 78.92400000000015 411.764 79.42300000000016 C 414.324 79.86300000000016 417.044 80.00900000000016 419.608 79.65900000000016 C 424.3 79.01900000000016 428.908 77.28200000000017 433.588 77.12900000000016 C 445.242 76.75100000000016 456.942 77.48100000000017 468.57800000000003 76.88400000000016 C 483.047 76.14200000000015 494.74800000000005 80.12400000000015 501.73600000000005 93.18100000000015 C 509.52500000000003 88.92200000000015 516.753 84.19100000000016 524.589 80.91100000000016 C 531.971 77.82100000000015 539.874 75.13100000000016 547.763 74.29400000000015 C 558.7470000000001 73.13000000000015 569.921 73.44000000000015 580.626 77.66000000000015 C 582.893 78.55300000000015 586.0079999999999 77.06900000000016 588.735 77.05500000000015 C 603.892 76.97900000000016 619.0500000000001 77.01800000000014 634.82 77.01800000000014 C 636.1740000000001 70.25200000000014 637.412 63.148000000000145 639.047 56.13600000000014 C 640.831 48.48900000000014 641.673 40.60300000000014 647.1460000000001 34.10300000000014 C 653.2210000000001 26.887000000000135 660.796 23.269000000000137 669.902 23.088000000000136 C 684.23 22.803000000000136 698.5780000000001 22.707000000000136 712.8950000000001 23.194000000000138 C 717.5230000000001 23.35200000000014 722.272 25.150000000000137 726.604 27.031000000000137 C 729.6450000000001 28.351000000000138 731.744 28.197000000000138 734.2040000000001 26.26200000000014 C 747.897 15.490000000000139 763.3580000000001 12.58200000000014 780.118 16.53300000000014 C 795.8240000000001 20.23600000000014 807.2410000000001 29.66900000000014 815.186 44.41800000000014 C 816.748 43.18600000000014 818.2090000000001 42.23800000000014 819.426 41.04300000000014 C 833.788 26.923000000000144 851.428 20.948000000000143 871.1560000000001 19.99000000000014 C 888.499 19.148000000000142 904.6490000000001 23.22800000000014 919.86 31.41900000000014 C 933.414 38.71800000000014 938.7280000000001 55.159000000000134 932.146 69.55000000000014 C 931.185 71.65200000000014 930.1859999999999 73.73700000000014 928.636 77.04000000000013 C 941.3059999999999 75.74800000000013 951.766 79.06200000000014 959.81 88.60600000000014 C 962.765 86.11100000000013 965.188 83.10500000000013 968.3299999999999 81.64000000000014 C 972.8939999999999 79.51100000000014 977.9359999999999 77.39000000000014 982.8449999999999 77.21000000000015 C 998.1579999999999 76.65000000000015 1013.5049999999999 76.99300000000015 1028.838 77.00800000000015 C 1046.232 77.02400000000016 1060.5919999999999 94.00200000000015 1055.899 110.74400000000014 C 1052.859 121.58700000000015 1047.2069999999999 131.74100000000016 1042.312 142.00600000000014 C 1038.1779999999999 150.67600000000013 1033.4019999999998 159.04000000000013 1028.993 167.58200000000014 C 1020.8629999999999 183.33200000000014 1012.794 199.11200000000014 1004.7009999999999 214.88200000000012 C 999.4709999999999 225.0700000000001 994.2989999999999 235.29000000000013 988.9989999999999 245.44200000000012 C 981.1689999999999 260.4380000000001 973.1819999999999 275.3720000000001 961.5419999999999 287.8730000000001 C 956.3649999999999 293.4340000000001 950.709 298.5500000000001 944.9359999999999 304.0070000000001 M 308.88599999999997 193.33400000000012 L 326.258 105.97400000000012 C 318.155 105.97400000000012 310.618 106.58700000000012 303.22499999999997 105.81300000000012 C 294.81699999999995 104.93300000000012 289.09999999999997 106.89800000000011 287.22799999999995 115.84800000000011 C 287.00399999999996 116.91700000000012 286.16799999999995 117.85800000000012 285.63399999999996 118.82500000000012 C 285.31699999999995 118.73200000000011 285.09899999999993 118.73600000000012 285.00699999999995 118.63000000000012 C 284.5799999999999 118.14000000000013 284.15599999999995 117.64000000000013 283.78599999999994 117.10400000000013 C 276.8829999999999 107.12200000000013 267.3229999999999 102.44800000000012 255.24599999999995 102.81400000000014 C 239.84499999999994 103.28100000000013 226.77999999999994 109.57900000000014 215.91899999999995 119.99100000000013 C 190.27999999999994 144.57100000000014 182.04699999999997 175.23100000000014 186.16399999999996 209.73400000000012 C 187.17799999999997 218.23300000000012 190.21999999999997 226.26400000000012 195.91099999999994 232.87000000000012 C 206.31799999999996 244.9510000000001 223.07099999999994 248.42500000000013 239.26099999999994 241.0880000000001 C 247.42999999999995 237.3860000000001 254.83999999999995 232.0080000000001 263.41299999999995 226.8980000000001 C 255.14699999999996 247.2310000000001 249.63599999999997 268.0190000000001 246.54499999999996 289.6910000000001 L 289.5 289.6910000000001 C 295.921 257.6910000000001 302.295 225.9230000000001 308.887 193.3340000000001 M 136.491 241.4140000000001 L 149.61800000000002 241.4140000000001 L 156.55500000000004 204.9170000000001 L 90.06500000000004 204.9170000000001 C 92.49200000000005 193.25500000000008 94.69200000000004 182.2110000000001 97.24300000000004 171.2480000000001 C 97.46800000000003 170.2820000000001 99.98300000000003 169.2720000000001 101.44300000000004 169.2580000000001 C 116.77300000000004 169.1140000000001 132.10800000000003 169.26700000000008 147.43700000000004 169.0420000000001 C 149.26400000000004 169.0150000000001 152.37700000000004 167.5310000000001 152.67100000000005 166.2220000000001 C 155.11100000000005 155.37400000000008 157.02800000000005 144.4080000000001 159.25600000000006 132.6740000000001 L 104.64300000000006 132.6740000000001 C 106.36800000000005 123.7170000000001 108.14700000000006 115.63100000000009 109.40600000000006 107.46400000000008 C 110.03200000000007 103.40400000000008 111.47800000000007 102.04400000000008 115.79100000000007 102.11400000000009 C 133.95100000000008 102.40300000000009 152.12100000000007 102.20800000000008 170.28600000000006 102.2640000000001 C 172.99300000000005 102.2730000000001 175.18400000000005 102.1010000000001 175.79400000000007 98.75100000000009 C 177.75500000000008 87.97700000000009 179.85400000000007 77.2290000000001 181.95800000000006 66.15900000000009 L 74.718 66.15900000000009 L 39.56 241.414 L 136.49 241.414 M 501.258 237.309 C 513.444 245.98499999999999 526.653 247.22299999999998 540.006 241.137 C 547.309 237.809 553.78 232.647 560.602 228.275 C 561.886 227.451 563.054 226.445 565.096 224.904 L 565.096 241.147 L 600.16 241.147 L 627.211 105.975 C 618.431 105.975 610.394 106.585 602.496 105.80099999999999 C 594.78 105.03399999999999 590.196 107.353 588.506 115.04699999999998 C 588.2099999999999 116.39499999999998 587.199 117.58699999999999 586.289 119.27599999999998 C 585.449 118.12699999999998 584.881 117.36699999999998 584.331 116.59499999999998 C 577.648 107.21699999999998 568.5070000000001 102.59499999999998 557.038 102.80699999999999 C 538.54 103.14999999999999 523.778 111.65699999999998 511.794 124.97099999999999 C 490.555 148.569 483.40999999999997 176.73 486.83 207.81599999999997 C 488.05699999999996 218.96299999999997 492.062 229.09299999999996 501.258 237.30899999999997 M 874.8820000000001 288.81899999999996 C 895.2940000000001 294.57399999999996 914.113 291.78399999999993 930.738 278.08899999999994 C 942.1220000000001 268.71199999999993 950.2320000000001 256.64899999999994 956.9330000000001 243.75599999999994 C 980.2470000000001 198.89599999999996 1003.2660000000001 153.88399999999996 1026.3670000000002 108.91299999999995 C 1026.765 108.13799999999995 1026.7810000000002 107.16699999999996 1027.0430000000001 105.97699999999995 C 1013.3190000000001 105.97699999999995 999.9930000000002 105.87699999999995 986.6750000000001 106.12299999999995 C 985.267 106.14899999999994 983.2310000000001 107.91299999999995 982.605 109.35599999999995 C 972.169 133.45899999999995 961.913 157.63999999999996 951.611 181.80199999999996 C 949.325 187.16199999999998 947.015 192.51199999999997 944.716 197.86699999999996 C 943.573 196.35699999999997 943.343 195.08199999999997 943.244 193.79799999999997 C 941.09 165.74899999999997 938.9870000000001 137.69599999999997 936.692 109.65799999999997 C 936.586 108.36299999999997 934.808 106.16199999999998 933.778 106.14399999999998 C 919.9830000000001 105.90799999999997 906.184 105.98599999999998 892.384 105.98599999999998 C 892.256 106.97299999999997 892.068 107.47399999999998 892.1510000000001 107.92499999999998 C 895.648 127.06899999999999 899.1880000000001 146.20499999999998 902.682 165.34999999999997 C 906.8340000000001 188.09799999999996 910.687 210.90399999999997 915.234 233.57099999999997 C 916.6850000000001 240.80799999999996 913.764 245.55799999999996 909.019 249.72699999999998 C 902.062 255.83899999999997 893.829 257.799 884.815 255.39999999999998 C 882.037 254.65999999999997 880.6270000000001 255.02999999999997 879.5540000000001 257.95 C 876.8020000000001 265.437 873.9560000000001 272.916 870.6240000000001 280.158 C 868.5240000000001 284.724 869.2160000000001 287.32 874.8820000000002 288.819 M 421.5060000000002 241.41600000000003 L 448.86300000000017 241.41600000000003 L 475.33000000000015 106.27100000000002 L 432.0500000000002 106.27100000000002 C 430.7780000000002 112.76600000000002 429.5020000000002 119.25800000000001 428.23600000000016 125.75100000000002 C 424.5140000000002 144.847 420.2090000000002 163.854 417.30600000000015 183.074 C 415.67100000000016 193.90200000000002 409.47200000000015 200.27700000000002 401.08300000000014 205.52300000000002 C 399.0430000000001 206.79800000000003 396.45300000000015 207.59700000000004 394.04600000000016 207.80800000000002 C 384.81500000000017 208.61800000000002 380.11100000000016 201.663 382.3460000000002 190.64800000000002 C 385.98400000000015 172.72100000000003 389.7370000000002 154.81800000000004 393.3810000000002 136.89200000000002 C 395.4300000000002 126.81200000000003 397.3560000000002 116.70800000000003 399.4170000000002 106.21500000000003 C 397.4400000000002 106.11700000000003 395.9770000000002 105.98500000000003 394.5140000000002 105.98200000000003 C 383.35100000000017 105.96500000000003 372.18300000000016 106.17100000000002 361.02900000000017 105.87000000000003 C 356.88800000000015 105.75900000000003 355.75800000000015 107.36000000000003 355.0350000000002 111.11500000000004 C 350.4790000000002 134.78500000000003 345.5920000000002 158.39200000000005 340.9470000000002 182.04500000000004 C 338.2850000000002 195.59700000000004 335.22900000000016 209.12900000000005 338.72700000000015 223.06900000000005 C 340.97900000000016 232.03900000000004 345.47500000000014 239.61300000000006 354.55800000000016 242.00900000000004 C 361.7470000000002 243.90400000000005 369.68600000000015 244.53200000000004 377.0740000000002 243.72700000000003 C 388.39700000000016 242.49200000000002 397.96400000000017 236.42400000000004 406.6670000000002 229.17700000000002 C 408.6010000000002 227.567 410.6650000000002 226.11400000000003 413.6560000000002 223.83700000000002 L 413.6560000000002 241.41700000000003 L 421.5060000000002 241.41700000000003 M 851.0210000000002 156.56600000000003 C 851.9310000000002 152.17000000000004 853.1110000000002 147.80600000000004 853.6610000000002 143.36600000000004 C 854.0390000000002 140.30400000000003 855.4870000000002 139.47600000000006 858.2080000000002 139.50300000000004 C 864.3500000000003 139.56400000000005 870.4920000000002 139.52300000000005 877.1780000000002 139.52300000000005 L 883.6280000000003 105.82000000000005 L 861.1970000000002 105.82000000000005 C 862.6200000000002 100.62300000000005 863.5590000000002 96.07400000000005 865.1300000000002 91.75400000000005 C 866.9120000000003 86.85400000000004 870.4440000000002 83.55600000000004 875.9980000000003 83.76400000000005 C 880.4200000000003 83.92800000000005 884.8130000000003 84.78400000000005 889.2360000000003 85.10900000000005 C 890.6010000000003 85.20900000000005 892.9020000000004 84.99500000000005 893.2790000000003 84.20800000000006 C 897.5650000000003 75.25800000000005 901.5610000000004 66.16800000000006 905.8210000000004 56.70400000000005 C 888.6540000000003 48.55400000000005 871.6040000000004 45.96700000000005 854.1980000000003 52.94900000000005 C 830.6710000000003 62.38700000000005 823.0450000000003 83.11300000000006 818.3880000000004 105.79900000000005 C 813.1860000000004 106.32600000000005 808.0550000000004 106.70500000000006 802.9780000000004 107.45200000000006 C 801.6220000000004 107.65100000000005 799.5380000000004 108.77100000000006 799.3040000000004 109.81000000000006 C 797.1300000000005 119.46500000000006 795.2890000000004 129.19500000000005 793.2050000000004 139.63300000000007 L 811.5470000000004 139.63300000000007 L 791.0450000000004 241.42600000000007 C 805.1670000000004 241.42600000000007 818.6190000000004 241.50900000000007 832.0650000000004 241.26400000000007 C 833.0980000000004 241.24600000000007 834.7220000000004 239.05000000000007 835.0030000000004 237.65100000000007 C 840.3830000000004 210.92100000000008 845.6030000000004 184.15900000000008 851.0210000000004 156.5660000000001 M 675.747 52.351 C 671.121 51.439 669.016 53.196999999999996 668.197 58.021 C 666.141 70.147 663.545 82.181 661.148 94.25 C 655.318 123.601 649.455 152.946 643.653 182.303 C 641.205 194.69 638.067 206.973 639.048 219.819 C 640 232.28099999999998 646.993 240.43599999999998 659.102 243.262 C 667.562 245.237 675.846 245.206 684.31 243.272 C 693.843 241.093 693.837 241.31 693.337 231.914 C 693.045 226.426 692.994 220.92499999999998 692.765 215.433 C 692.692 213.677 692.396 211.93 692.215 210.29899999999998 C 683.515 209.34599999999998 681.7620000000001 207.36899999999997 683.326 199.46899999999997 C 688.9780000000001 170.92599999999996 694.826 142.42199999999997 700.5740000000001 113.89899999999997 C 704.6370000000001 93.73599999999998 708.658 73.56599999999997 712.907 52.35099999999997 L 675.7470000000001 52.35099999999997 M 767.8890000000001 164.40799999999996 L 779.5570000000001 105.98299999999996 C 765.3640000000001 105.98299999999996 752.0650000000002 105.89999999999996 738.7720000000002 106.13399999999996 C 737.6620000000001 106.15399999999995 735.9620000000002 108.14299999999996 735.6090000000002 109.49599999999995 C 734.2320000000002 114.79799999999994 733.2610000000002 120.20599999999996 732.1850000000002 125.58399999999995 C 726.1890000000002 155.56499999999994 720.1910000000001 185.54599999999994 714.2300000000001 215.53399999999993 C 712.5600000000002 223.92999999999995 711.0150000000001 232.34899999999993 709.3320000000001 241.17899999999995 C 711.4560000000001 241.27999999999994 712.9190000000001 241.40899999999993 714.3820000000001 241.41099999999994 C 725.374 241.42699999999994 736.374 241.16099999999994 747.3510000000001 241.54399999999995 C 751.7090000000001 241.69599999999994 752.9970000000001 240.12399999999997 753.7500000000001 236.17899999999995 C 758.2660000000001 212.50599999999994 763.0220000000002 188.87899999999996 767.8900000000001 164.40799999999996 M 789.6460000000001 66.16599999999995 C 790.2950000000001 58.12199999999996 787.21 51.908999999999956 780.374 47.653999999999954 C 767.2470000000001 39.48499999999996 748.524 45.73199999999996 742.809 60.134999999999955 C 739.0939999999999 69.49699999999996 741.817 79.42499999999995 749.6189999999999 84.43899999999995 C 763.737 93.51299999999995 787.4769999999999 86.86899999999996 789.646 66.16599999999995 M 880.8159999999999 206.86899999999997 L 876.4619999999999 185.67099999999996 L 875.0069999999998 185.82999999999996 L 866.8949999999999 227.88999999999996 L 883.2929999999999 224.15999999999997 C 882.512 218.70199999999997 881.7269999999999 213.21799999999996 880.8149999999999 206.86899999999997 z" stroke-linecap="round" />
	</g>
			<g transform="matrix(1 0 0 1 -0.3 -0.11)"  >
	<path style="stroke: none; stroke-width: 1; stroke-dasharray: none; stroke-linecap: butt; stroke-dashoffset: 0; stroke-linejoin: miter; stroke-miterlimit: 4; fill: rgb(253,254,253); fill-rule: nonzero; opacity: 1;" vector-effect="non-scaling-stroke"  transform=" translate(-533.3, -167.81)" d="M 308.778 193.745 C 302.295 225.923 295.92100000000005 257.69100000000003 289.5 289.69100000000003 L 246.54500000000002 289.69100000000003 C 249.63500000000002 268.019 255.14700000000002 247.23100000000002 263.413 226.89900000000003 C 254.84 232.00800000000004 247.43 237.38600000000002 239.26100000000002 241.08900000000003 C 223.07100000000003 248.42500000000004 206.31800000000004 244.95100000000002 195.91100000000003 232.87000000000003 C 190.22000000000003 226.26400000000004 187.17800000000003 218.23300000000003 186.16400000000004 209.73400000000004 C 182.04700000000005 175.23100000000005 190.28000000000003 144.57200000000003 215.91900000000004 119.99100000000004 C 226.77900000000005 109.57900000000004 239.84500000000003 103.28100000000003 255.24600000000004 102.81400000000005 C 267.32300000000004 102.44800000000005 276.88300000000004 107.12200000000004 283.78600000000006 117.10400000000004 C 284.15600000000006 117.63900000000004 284.58000000000004 118.13900000000004 285.00700000000006 118.63000000000004 C 285.09900000000005 118.73600000000003 285.31700000000006 118.73200000000004 285.63400000000007 118.82500000000003 C 286.1690000000001 117.85700000000003 287.0040000000001 116.91700000000003 287.22800000000007 115.84800000000003 C 289.1000000000001 106.89800000000002 294.81700000000006 104.93300000000002 303.2250000000001 105.81300000000003 C 310.6170000000001 106.58700000000003 318.1550000000001 105.97500000000004 326.2580000000001 105.97500000000004 C 320.4000000000001 135.43200000000004 314.6430000000001 164.38300000000004 308.7780000000001 193.74500000000003 M 272.69900000000007 144.86500000000004 C 265.12000000000006 136.27900000000002 256.20900000000006 135.83800000000005 247.31700000000006 142.87900000000005 C 231.56500000000005 155.35200000000006 227.25700000000006 186.46400000000006 231.43700000000007 200.86400000000003 C 233.44800000000006 207.79600000000002 239.17700000000008 210.90100000000004 246.24300000000008 209.17000000000004 C 256.9000000000001 206.56000000000003 263.7610000000001 199.41700000000003 266.4330000000001 189.17400000000004 C 269.6130000000001 176.98300000000003 271.6670000000001 164.49000000000004 273.9500000000001 152.08000000000004 C 274.3300000000001 150.01300000000003 273.3860000000001 147.70300000000003 272.7000000000001 144.86400000000003 z M 135.992 241.414 L 39.56 241.414 L 74.717 66.16 L 181.958 66.16 C 179.853 77.22999999999999 177.755 87.978 175.794 98.752 C 175.184 102.10199999999999 172.99300000000002 102.274 170.286 102.265 C 152.12 102.209 133.952 102.404 115.791 102.115 C 111.478 102.045 110.03099999999999 103.405 109.40599999999999 107.46499999999999 C 108.14699999999999 115.63199999999999 106.368 123.71799999999999 104.64299999999999 132.67499999999998 L 159.25599999999997 132.67499999999998 C 157.02799999999996 144.409 155.11099999999996 155.37499999999997 152.67099999999996 166.22299999999998 C 152.37599999999998 167.53199999999998 149.26399999999995 169.016 147.43699999999995 169.04299999999998 C 132.10799999999995 169.26799999999997 116.77299999999995 169.11499999999998 101.44199999999995 169.259 C 99.98199999999996 169.273 97.46799999999995 170.283 97.24299999999995 171.249 C 94.69299999999996 182.212 92.49299999999995 193.256 90.06599999999995 204.91899999999998 L 156.55599999999993 204.91899999999998 L 149.61799999999994 241.415 L 135.99199999999993 241.415 z M 500.98 237.08 C 492.062 229.09300000000002 488.057 218.96300000000002 486.83000000000004 207.816 C 483.41 176.73000000000002 490.55500000000006 148.56900000000002 511.79400000000004 124.971 C 523.777 111.656 538.5400000000001 103.15 557.038 102.807 C 568.508 102.59400000000001 577.648 107.217 584.331 116.595 C 584.881 117.367 585.4490000000001 118.127 586.289 119.275 C 587.199 117.587 588.209 116.39500000000001 588.506 115.04700000000001 C 590.196 107.35300000000001 594.78 105.034 602.496 105.80100000000002 C 610.394 106.58500000000002 618.43 105.97500000000002 627.211 105.97500000000002 L 600.16 241.147 L 565.096 241.147 L 565.096 224.904 C 563.054 226.445 561.886 227.451 560.602 228.274 C 553.78 232.648 547.309 237.809 540.006 241.137 C 526.653 247.223 513.444 245.985 500.981 237.08 M 538.571 155.10700000000003 C 531.7 168.90300000000002 529.3140000000001 183.46400000000003 531.865 198.63700000000003 C 533.362 207.53600000000003 539.747 211.35400000000004 548.371 208.78500000000003 C 559.217 205.55500000000004 565.601 197.92300000000003 567.967 187.03000000000003 C 570.256 176.48800000000003 571.972 165.82000000000002 574.377 155.30600000000004 C 575.5409999999999 150.21600000000004 575.6809999999999 145.85000000000005 571.2879999999999 142.25600000000003 C 566.6219999999998 138.43600000000004 561.5979999999998 136.69900000000004 555.5959999999999 138.82200000000003 C 547.7219999999999 141.60800000000003 542.8809999999999 147.54300000000003 538.5699999999999 155.10700000000003 z M 874.517 288.679 C 869.2170000000001 287.31899999999996 868.524 284.724 870.625 280.15799999999996 C 873.956 272.91599999999994 876.802 265.43799999999993 879.554 257.94899999999996 C 880.627 255.02899999999997 882.0369999999999 254.66099999999994 884.814 255.39999999999995 C 893.829 257.7989999999999 902.063 255.83899999999994 909.019 249.72699999999995 C 913.763 245.55699999999996 916.6850000000001 240.80699999999996 915.234 233.57099999999994 C 910.687 210.90399999999994 906.8340000000001 188.09799999999996 902.682 165.35099999999994 C 899.187 146.20599999999993 895.648 127.06899999999995 892.1510000000001 107.92499999999994 C 892.0680000000001 107.47399999999995 892.2560000000001 106.97299999999994 892.384 105.98599999999993 C 906.184 105.98599999999993 919.984 105.90799999999993 933.778 106.14399999999993 C 934.808 106.16199999999994 936.586 108.36399999999993 936.692 109.65799999999993 C 938.987 137.69599999999994 941.09 165.74899999999994 943.244 193.79799999999994 C 943.3430000000001 195.08199999999994 943.573 196.35599999999994 944.716 197.86699999999993 C 947.015 192.51199999999994 949.326 187.16199999999992 951.611 181.80199999999994 C 961.913 157.63999999999993 972.169 133.45899999999995 982.606 109.35599999999994 C 983.231 107.91299999999994 985.266 106.14899999999994 986.676 106.12299999999993 C 999.994 105.87799999999993 1013.3190000000001 105.97699999999993 1027.0430000000001 105.97699999999993 C 1026.7810000000002 107.16699999999993 1026.765 108.13799999999993 1026.3670000000002 108.91299999999993 C 1003.2670000000002 153.88299999999992 980.2470000000002 198.89599999999993 956.9330000000002 243.75599999999991 C 950.2330000000002 256.6489999999999 942.1220000000002 268.71199999999993 930.7380000000002 278.08899999999994 C 914.1130000000002 291.78399999999993 895.2940000000002 294.57399999999996 874.5170000000002 288.6789999999999 z M 421.005 241.416 L 413.655 241.416 L 413.655 223.838 C 410.66499999999996 226.114 408.601 227.567 406.667 229.177 C 397.96299999999997 236.42399999999998 388.397 242.492 377.07399999999996 243.727 C 369.686 244.532 361.74699999999996 243.904 354.55799999999994 242.00900000000001 C 345.4749999999999 239.61300000000003 340.9789999999999 232.03900000000002 338.72799999999995 223.06900000000002 C 335.2289999999999 209.12900000000002 338.28499999999997 195.597 340.94699999999995 182.04600000000002 C 345.5919999999999 158.39200000000002 350.4789999999999 134.78600000000003 355.03499999999997 111.11500000000002 C 355.758 107.36000000000003 356.888 105.75900000000003 361.029 105.87000000000002 C 372.183 106.17000000000002 383.351 105.96500000000002 394.514 105.98200000000001 C 395.97700000000003 105.98500000000001 397.44 106.11700000000002 399.41700000000003 106.21500000000002 C 397.357 116.70800000000001 395.43 126.81200000000001 393.38100000000003 136.89200000000002 C 389.737 154.818 385.98400000000004 172.72100000000003 382.346 190.64800000000002 C 380.111 201.663 384.815 208.61800000000002 394.046 207.80800000000002 C 396.454 207.598 399.044 206.79800000000003 401.08299999999997 205.52300000000002 C 409.47299999999996 200.27700000000002 415.671 193.90200000000002 417.30699999999996 183.07300000000004 C 420.20899999999995 163.85400000000004 424.51399999999995 144.84700000000004 428.23599999999993 125.75200000000004 C 429.50199999999995 119.25800000000004 430.7779999999999 112.76600000000003 432.04999999999995 106.27100000000004 L 475.3299999999999 106.27100000000004 L 448.86299999999994 241.41600000000005 L 421.00499999999994 241.41600000000005 z M 850.938 156.984 C 845.602 184.15900000000002 840.383 210.921 835.003 237.651 C 834.7220000000001 239.05 833.0980000000001 241.246 832.066 241.264 C 818.619 241.50900000000001 805.166 241.42600000000002 791.0450000000001 241.42600000000002 L 811.547 139.633 L 793.205 139.633 C 795.289 129.19500000000002 797.13 119.465 799.3040000000001 109.81 C 799.5380000000001 108.771 801.6220000000001 107.651 802.9780000000001 107.452 C 808.0550000000001 106.705 813.186 106.326 818.388 105.8 C 823.0450000000001 83.113 830.671 62.387 854.1980000000001 52.949 C 871.604 45.967 888.6540000000001 48.553 905.8210000000001 56.704 C 901.5610000000001 66.168 897.5650000000002 75.258 893.2790000000001 84.208 C 892.9020000000002 84.995 890.6010000000001 85.209 889.2360000000001 85.109 C 884.8130000000001 84.78399999999999 880.4200000000001 83.92899999999999 875.998 83.76299999999999 C 870.4440000000001 83.556 866.912 86.85399999999998 865.13 91.75399999999999 C 863.56 96.07399999999998 862.62 100.624 861.197 105.82 L 883.627 105.82 L 877.178 139.522 C 870.492 139.522 864.35 139.564 858.208 139.50199999999998 C 855.4879999999999 139.475 854.039 140.30399999999997 853.661 143.36599999999999 C 853.111 147.80599999999998 851.9309999999999 152.17 850.938 156.98399999999998 z M 676.219 52.351 L 712.907 52.351 C 708.657 73.566 704.6370000000001 93.73599999999999 700.5740000000001 113.898 C 694.826 142.422 688.9780000000001 170.926 683.326 199.468 C 681.7620000000001 207.369 683.5160000000001 209.346 692.216 210.298 C 692.396 211.93 692.692 213.677 692.766 215.433 C 692.9939999999999 220.92499999999998 693.0459999999999 226.426 693.337 231.91299999999998 C 693.837 241.30999999999997 693.843 241.093 684.31 243.272 C 675.8459999999999 245.206 667.563 245.237 659.102 243.262 C 646.9929999999999 240.436 640 232.282 639.048 219.819 C 638.067 206.97299999999998 641.205 194.69 643.653 182.303 C 649.455 152.946 655.318 123.601 661.148 94.25 C 663.5450000000001 82.182 666.1410000000001 70.14699999999999 668.198 58.02 C 669.016 53.197 671.121 51.440000000000005 676.218 52.351000000000006 z M 767.794 164.822 C 763.0219999999999 188.879 758.266 212.506 753.75 236.179 C 752.997 240.124 751.71 241.696 747.35 241.544 C 736.374 241.161 725.374 241.42700000000002 714.383 241.411 C 712.919 241.409 711.456 241.281 709.3330000000001 241.179 C 711.0150000000001 232.349 712.561 223.929 714.2300000000001 215.535 C 720.1900000000002 185.546 726.1900000000002 155.565 732.1850000000002 125.584 C 733.2610000000002 120.206 734.2320000000002 114.798 735.6090000000002 109.49600000000001 C 735.9610000000001 108.14300000000001 737.6620000000001 106.15400000000001 738.7720000000002 106.13400000000001 C 752.0650000000002 105.90000000000002 765.3640000000001 105.98300000000002 779.5570000000001 105.98300000000002 C 775.5990000000002 125.80200000000002 771.7440000000001 145.10500000000002 767.7940000000001 164.822 z M 789.582 66.579 C 787.477 86.869 763.737 93.51299999999999 749.62 84.439 C 741.817 79.42399999999999 739.094 69.49699999999999 742.809 60.13499999999999 C 748.524 45.73199999999999 767.247 39.48499999999999 780.374 47.65499999999999 C 787.21 51.908999999999985 790.2950000000001 58.121999999999986 789.582 66.57899999999998 z" stroke-linecap="round" />
	</g>
			<g transform="matrix(1 0 0 1 -131.09 5.85)"  >
	<path style="stroke: none; stroke-width: 1; stroke-dasharray: none; stroke-linecap: butt; stroke-dashoffset: 0; stroke-linejoin: miter; stroke-miterlimit: 4; fill: rgb(24,97,33); fill-rule: nonzero; opacity: 1;" vector-effect="non-scaling-stroke"  transform=" translate(-402.5, -173.77)" d="M 272.877 145.185 C 273.387 147.703 274.33 150.013 273.95 152.08 C 271.667 164.49 269.61199999999997 176.983 266.433 189.174 C 263.76099999999997 199.417 256.9 206.559 246.243 209.17000000000002 C 239.177 210.901 233.448 207.79600000000002 231.436 200.864 C 227.256 186.464 231.565 155.352 247.317 142.87900000000002 C 256.21000000000004 135.83900000000003 265.12 136.27900000000002 272.877 145.18500000000003 z M 538.736 154.775 C 542.881 147.543 547.722 141.608 555.596 138.822 C 561.598 136.699 566.622 138.437 571.288 142.256 C 575.681 145.85 575.541 150.216 574.376 155.306 C 571.972 165.81900000000002 570.256 176.488 567.966 187.03 C 565.601 197.923 559.217 205.554 548.371 208.785 C 539.747 211.35399999999998 533.362 207.536 531.865 198.636 C 529.314 183.464 531.7 168.903 538.735 154.776 z" stroke-linecap="round" />
	</g>
	</g>
	</g>
	<g transform="matrix(0.32 0 0 0.32 1580.37 530.17)" style="" id="0ddab0eb-0518-4bad-9d8c-e22c805245cd"  >
			<text xml:space="preserve" font-family="Raleway" font-size="105" font-style="normal" font-weight="900" style="stroke: none; stroke-width: 1; stroke-dasharray: none; stroke-linecap: butt; stroke-dashoffset: 0; stroke-linejoin: miter; stroke-miterlimit: 4; fill: rgb(0,0,0); fill-rule: nonzero; opacity: 1; white-space: pre;" ><tspan x="-121.54" y="32.98" >Beta</tspan></text>
	</g>
	<g transform="matrix(9.98 0 0 9.48 590.35 306.85)"  >
	<path style="stroke: none; stroke-width: 1; stroke-dasharray: none; stroke-linecap: butt; stroke-dashoffset: 0; stroke-linejoin: miter; stroke-miterlimit: 4; fill: rgb(0,0,0); fill-rule: nonzero; opacity: 1;" vector-effect="non-scaling-stroke"  transform=" translate(-9.75, -17.07)" d="M 7.21 14.07 L 10.21 14.07 C 10.651886809962436 14.013854063330829 11.097287714874119 14.14329023722987 11.440259109387757 14.42752067467211 C 11.783230503901393 14.711751112114351 11.99311890490783 15.125372374059054 12.020000000000001 15.570000000000002 C 12.032286051632287 16.144214827520905 11.70217504237736 16.67082048514186 11.180000000000001 16.91 C 11.826863719773925 17.14466933344984 12.263565069221935 17.752081210409347 12.280000000000001 18.44 C 12.251513846907468 18.929723163317938 12.018789479703164 19.385006114870617 11.638531704412195 19.694916201732756 C 11.258273929121225 20.004826288594895 10.765399326571156 20.14090649739203 10.280000000000001 20.07 L 7.21 20.07 Z M 9.92 16.490000000000002 C 10.4 16.490000000000002 10.74 16.21 10.74 15.820000000000002 C 10.74 15.430000000000003 10.4 15.170000000000002 9.92 15.170000000000002 L 8.49 15.170000000000002 L 8.49 16.490000000000002 Z M 10.12 18.970000000000002 C 10.417990724168098 19.030509597330934 10.723027086559808 18.90510784844171 10.892296245991915 18.65250572112579 C 11.061565405424021 18.399903593809874 11.061565405424021 18.07009640619013 10.892296245991915 17.817494278874214 C 10.72302708655981 17.564892151558297 10.417990724168098 17.439490402669072 10.12 17.500000000000004 L 8.49 17.500000000000004 L 8.49 19 Z" stroke-linecap="round" />
	</g>
	<g transform="matrix(9.98 0 0 9.48 648.5 306.83)"  >
	<path style="stroke: none; stroke-width: 1; stroke-dasharray: none; stroke-linecap: butt; stroke-dashoffset: 0; stroke-linejoin: miter; stroke-miterlimit: 4; fill: rgb(0,0,0); fill-rule: nonzero; opacity: 1;" vector-effect="non-scaling-stroke"  transform=" translate(-15.57, -17.07)" d="M 14.55 15.23 L 14.55 16.43 L 17.55 16.43 L 17.55 17.59 L 14.55 17.59 L 14.55 18.91 L 17.880000000000003 18.91 L 17.880000000000003 20.07 L 13.26 20.07 L 13.26 14.07 L 17.88 14.07 L 17.88 15.23 Z" stroke-linecap="round" />
	</g>
	<g transform="matrix(9.98 0 0 9.48 703.13 306.83)"  >
	<path style="stroke: none; stroke-width: 1; stroke-dasharray: none; stroke-linecap: butt; stroke-dashoffset: 0; stroke-linejoin: miter; stroke-miterlimit: 4; fill: rgb(0,0,0); fill-rule: nonzero; opacity: 1;" vector-effect="non-scaling-stroke"  transform=" translate(-21.04, -17.07)" d="M 20.41 15.23 L 18.54 15.23 L 18.54 14.07 L 23.54 14.07 L 23.54 15.23 L 21.7 15.23 L 21.7 20.07 L 20.41 20.07 Z" stroke-linecap="round" />
	</g>
	<g transform="matrix(9.98 0 0 9.48 759.27 306.83)"  >
	<path style="stroke: none; stroke-width: 1; stroke-dasharray: none; stroke-linecap: butt; stroke-dashoffset: 0; stroke-linejoin: miter; stroke-miterlimit: 4; fill: rgb(0,0,0); fill-rule: nonzero; opacity: 1;" vector-effect="non-scaling-stroke"  transform=" translate(-26.66, -17.07)" d="M 28 19.12 L 25.32 19.12 L 24.94 20.07 L 23.5 20.07 L 25.94 14.07 L 27.380000000000003 14.07 L 29.830000000000002 20.07 L 28.38 20.07 Z M 27.55 18 L 26.66 15.81 L 25.77 18 Z" stroke-linecap="round" />
	</g>
</svg>